HIERARCHY
ROOT Hips
{
 OFFSET 0.000000 0.000000 0.000000
 CHANNELS 6 Xposition Yposition Zposition Yrotation Xrotation Zrotation
 JOINT Chest
 {
  OFFSET 0.000000 9.581000 -0.001100
  CHANNELS 3 Yrotation Xrotation Zrotation
  JOINT Chest2
  {
   OFFSET 0.000000 9.561100 0.002200
   CHANNELS 3 Yrotation Xrotation Zrotation
   JOINT Chest3
   {
    OFFSET 0.000000 9.521100 0.000000
    CHANNELS 3 Yrotation Xrotation Zrotation
    JOINT Chest4
    {
     OFFSET 0.000000 9.511400 0.000000
     CHANNELS 3 Yrotation Xrotation Zrotation
     JOINT Neck
     {
      OFFSET 0.000000 14.375100 0.000000
      CHANNELS 3 Yrotation Xrotation Zrotation
      JOINT Head
      {
       OFFSET 0.000000 8.901200 0.004600
       CHANNELS 3 Yrotation Xrotation Zrotation
       End Site
       {
        OFFSET 0.000000 16.962200 0.002400
       }
      }
     }
     JOINT RightCollar
     {
      OFFSET -2.920100 9.518800 0.000000
      CHANNELS 3 Yrotation Xrotation Zrotation
      JOINT RightShoulder
      {
       OFFSET -13.664500 0.000000 0.000000
       CHANNELS 3 Yrotation Xrotation Zrotation
       JOINT RightElbow
       {
        OFFSET 0.000000 -29.999200 0.000000
        CHANNELS 3 Yrotation Xrotation Zrotation
        JOINT RightWrist
        {
         OFFSET 0.000000 -24.253600 0.000000
         CHANNELS 3 Yrotation Xrotation Zrotation
         End Site
         {
          OFFSET 0.000000 -17.918900 0.000000
         }
        }
       }
      }
     }
     JOINT LeftCollar
     {
      OFFSET 2.920100 9.518800 0.000000
      CHANNELS 3 Yrotation Xrotation Zrotation
      JOINT LeftShoulder
      {
       OFFSET 13.664500 0.000000 0.000000
       CHANNELS 3 Yrotation Xrotation Zrotation
       JOINT LeftElbow
       {
        OFFSET 0.000000 -29.999200 0.000000
        CHANNELS 3 Yrotation Xrotation Zrotation
        JOINT LeftWrist
        {
         OFFSET 0.000000 -24.253600 0.000000
         CHANNELS 3 Yrotation Xrotation Zrotation
         End Site
         {
          OFFSET 0.000000 -17.918900 0.000000
         }
        }
       }
      }
     }
    }
   }
  }
 }
 JOINT RightHip
 {
  OFFSET -7.797300 0.005300 0.000500
  CHANNELS 3 Yrotation Xrotation Zrotation
  JOINT RightKnee
  {
   OFFSET 0.000000 -40.663400 -0.000500
   CHANNELS 3 Yrotation Xrotation Zrotation
   JOINT RightAnkle
   {
    OFFSET 0.000000 -39.523700 -0.000900
    CHANNELS 3 Yrotation Xrotation Zrotation
    JOINT RightToe
    {
     OFFSET 0.000000 -6.418000 14.485300
     CHANNELS 3 Yrotation Xrotation Zrotation
     End Site
     {
      OFFSET 0.000000 -1.465200 6.326400
     }
    }
   }
  }
 }
 JOINT LeftHip
 {
  OFFSET 7.797300 0.005300 0.000500
  CHANNELS 3 Yrotation Xrotation Zrotation
  JOINT LeftKnee
  {
   OFFSET 0.000000 -40.663400 -0.000500
   CHANNELS 3 Yrotation Xrotation Zrotation
   JOINT LeftAnkle
   {
    OFFSET 0.000000 -39.523700 -0.000900
    CHANNELS 3 Yrotation Xrotation Zrotation
    JOINT LeftToe
    {
     OFFSET 0.000000 -6.418000 14.485300
     CHANNELS 3 Yrotation Xrotation Zrotation
     End Site
     {
      OFFSET 0.000000 -1.465200 6.326400
     }
    }
   }
  }
 }
}
MOTION
Frames: 15
Frame Time: 0.008333
0.000000 86.422400 0.000000 0.000000 -5.767877 0.000000 0.000000 11.653817 0.000000 0.000000 -5.885947 0.000000 0.000000 -0.000000 0.000000 0.000000 -0.000000 0.000000 0.000000 12.528835 0.000000 0.000000 0.711642 0.000000 0.000000 -0.000000 0.000000 0.000000 0.000000 -90.000000 0.000000 -2.309062 0.000000 0.000000 2.309062 0.000000 0.000000 -0.000000 0.000000 0.000000 -0.000000 90.000000 0.000000 -2.309062 0.000000 0.000000 2.309062 0.000000 0.000000 8.520406 0.000000 0.000000 1.905762 0.000000 -0.000000 -4.658285 0.000000 0.000000 -0.000000 0.000000 0.000000 8.520406 0.000000 0.000000 1.905762 0.000000 -0.000000 -4.658285 0.000000 0.000000 -0.000000 0.000000
-14.533751 126.915745 24.200279 -169.135746 -49.576773 -2.672902 -3.191187 25.701936 -0.787499 -0.484596 4.213800 -0.027575 -0.779527 6.689600 -0.072042 -2.562454 21.166593 -0.533017 9.711640 16.959266 1.558141 10.307603 -7.522166 -0.575666 -0.115115 1.988819 0.275842 6.611581 -6.339750 -7.505521 -62.278645 -56.789228 118.839590 19.158413 26.216924 26.218722 -12.375677 -1.642482 -2.007183 -7.557086 -33.171709 14.875116 78.968602 -61.396247 -120.048599 -4.580065 -13.101716 3.589566 -4.507120 -22.880812 -4.453085 -8.946586 78.285963 -8.336638 6.648529 -14.574039 2.544488 0.000042 -0.001129 0.000019 6.302071 5.975674 1.888348 128.764330 65.235722 148.118893 6.384913 13.502003 1.393049 0.000255 -0.006683 0.000113
-14.533220 126.915114 24.200644 -169.149213 -49.570907 -2.663225 -3.175707 25.711322 -0.773200 -0.489119 4.208123 -0.032387 -0.780059 6.705492 -0.067097 -2.555576 21.174642 -0.527336 9.630413 17.028592 1.561958 10.203951 -7.451166 -0.551826 -0.118567 1.964486 0.271370 6.627097 -6.342922 -7.517303 -62.293763 -56.783124 118.850730 19.164656 26.221389 26.234226 -12.364993 -1.663433 -2.005317 -7.818162 -32.923154 14.936399 78.082000 -61.480502 -119.306750 -4.607617 -13.064085 3.594391 -4.500718 -22.887100 -4.454011 -8.942215 78.286820 -8.331116 6.650193 -14.579691 2.551717 0.000096 -0.000925 0.000042 6.301596 5.970097 1.885179 128.790815 65.234376 148.140437 6.395179 13.509046 1.367681 0.000390 -0.004654 0.000173
-14.534102 126.915319 24.200524 -169.154408 -49.571941 -2.651907 -3.165236 25.726506 -0.765815 -0.494864 4.203360 -0.036680 -0.760088 6.745261 -0.045201 -2.570139 21.157866 -0.534051 9.547906 17.093374 1.566002 10.100944 -7.384148 -0.529508 -0.109482 1.947954 0.274272 6.625464 -6.352900 -7.537042 -62.311029 -56.778003 118.863786 19.170340 26.224529 26.248049 -12.316107 -1.662597 -1.995186 -8.084390 -32.702181 14.976974 77.199168 -61.568840 -118.586889 -4.640826 -13.007169 3.604971 -4.498531 -22.886575 -4.467697 -8.912456 78.291763 -8.293579 6.635367 -14.585948 2.551076 -0.000828 -0.000675 -0.000367 6.300523 5.977680 1.880138 128.794778 65.239969 148.141229 6.413997 13.535118 1.299194 -0.003216 0.006070 -0.001425
-14.534833 126.915066 24.200873 -169.148676 -49.569277 -2.649352 -3.160151 25.736821 -0.756424 -0.496159 4.208579 -0.037061 -0.756636 6.750297 -0.040328 -2.566828 21.166579 -0.523992 9.464261 17.154182 1.564272 9.999551 -7.323430 -0.509472 -0.107202 1.930320 0.275031 6.649353 -6.354249 -7.559192 -62.311149 -56.753660 118.908896 19.172520 26.238495 26.192484 -12.267377 -1.660750 -1.986280 -8.321819 -32.487076 15.002437 76.324682 -61.651819 -117.895593 -4.679656 -12.919967 3.622561 -4.497016 -22.887446 -4.483164 -8.870802 78.295601 -8.246577 6.641071 -14.597523 2.552014 -0.001187 -0.001034 -0.000526 6.295909 5.978960 1.874859 128.799152 65.240456 148.143690 6.413174 13.533054 1.294906 -0.005559 0.008024 -0.002463
-14.535907 126.915134 24.201065 -169.139837 -49.569713 -2.647623 -3.160276 25.745728 -0.752956 -0.492106 4.217432 -0.030856 -0.755849 6.755582 -0.039378 -2.533453 21.207983 -0.491503 9.375348 17.138460 1.535432 9.872557 -7.232737 -0.472465 -0.134584 1.878838 0.267655 6.672380 -6.354760 -7.585135 -62.336044 -56.739429 118.935586 19.172686 26.244257 26.177801 -12.256982 -1.696557 -1.983694 -8.523153 -32.273524 15.016102 75.447785 -61.729015 -117.224537 -4.726919 -12.808887 3.649500 -4.494764 -22.887042 -4.497961 -8.866046 78.301356 -8.235555 6.645367 -14.604440 2.549715 -0.001131 -0.000955 -0.000501 6.293759 5.986994 1.869749 128.792024 65.240077 148.133662 6.398524 13.498039 1.354020 -0.006594 0.002686 -0.002922
-14.536858 126.915129 24.201391 -169.127448 -49.569833 -2.649703 -3.168612 25.748423 -0.757051 -0.482212 4.230326 -0.021223 -0.762266 6.751271 -0.043511 -2.531166 21.212565 -0.486998 9.334022 17.165955 1.534190 9.751330 -7.151053 -0.446420 -0.118991 1.877511 0.279403 6.689299 -6.353947 -7.604357 -62.366336 -56.734540 118.956283 19.169906 26.246621 26.170684 -12.203871 -1.677195 -1.970010 -8.705195 -32.069403 15.012836 74.565548 -61.798336 -116.567861 -4.777876 -12.687254 3.678229 -4.495599 -22.887150 -4.508453 -8.859708 78.307830 -8.225871 6.645651 -14.612137 2.550137 -0.000834 -0.001659 -0.000369 6.294176 5.992253 1.867832 128.781402 65.239008 148.125953 6.388046 13.471991 1.388569 -0.007333 -0.000342 -0.003249
-14.537227 126.915070 24.201768 -169.112993 -49.569549 -2.657419 -3.164461 25.760450 -0.742814 -0.482001 4.234343 -0.019489 -0.770284 6.746273 -0.048103 -2.529510 21.216646 -0.482565 9.228345 17.284004 1.537873 9.705429 -7.161319 -0.470820 -0.100008 1.878662 0.286376 6.702974 -6.350788 -7.616385 -62.398193 -56.723387 118.984603 19.172308 26.254080 26.156685 -12.181890 -1.674307 -1.963996 -8.841372 -31.852283 15.006476 73.679407 -61.853126 -115.925212 -4.820122 -12.568920 3.693442 -4.486865 -22.886182 -4.512810 -8.874174 78.309749 -8.233005 6.648723 -14.614369 2.549257 -0.000674 -0.001752 -0.000299 6.293848 5.995526 1.872296 128.775584 65.242137 148.126839 6.379186 13.457583 1.407713 -0.005118 -0.002868 -0.002267
-14.537770 126.914976 24.202279 -169.096252 -49.569024 -2.666491 -3.161164 25.772889 -0.729958 -0.481892 4.239072 -0.017608 -0.769787 6.753381 -0.045016 -2.505942 21.255356 -0.451816 9.112764 17.311574 1.503940 9.635357 -7.140224 -0.479434 -0.115990 1.835308 0.275475 6.754838 -6.325338 -7.619099 -62.478444 -56.725499 119.034736 19.178757 26.266875 26.135907 -12.134554 -1.689573 -1.951258 -9.013089 -31.670798 14.980651 72.783748 -61.890051 -115.290258 -4.843641 -12.471617 3.680984 -4.482743 -22.885804 -4.512110 -8.885329 78.311291 -8.241831 6.644578 -14.615627 2.549847 -0.001230 -0.001898 -0.000545 6.292962 6.001029 1.877920 128.765033 65.247485 148.123889 6.369700 13.437551 1.415689 -0.002888 -0.006340 -0.001279
-14.538405 126.914741 24.203010 -169.074556 -49.567278 -2.679338 -3.162757 25.784535 -0.717937 -0.469236 4.253060 -0.007047 -0.784181 6.749136 -0.050059 -2.502320 21.257271 -0.441829 9.041818 17.348149 1.484922 9.557201 -7.104788 -0.483676 -0.100880 1.833484 0.273286 6.751562 -6.323539 -7.620782 -62.497188 -56.717789 119.057291 19.187225 26.277034 26.120161 -12.064666 -1.664191 -1.934408 -9.177652 -31.489090 14.953443 71.875996 -61.904084 -114.655744 -4.843657 -12.401660 3.631623 -4.487819 -22.886374 -4.506252 -8.891306 78.313047 -8.247638 6.633677 -14.617971 2.545996 -0.003891 -0.002103 -0.001724 6.293143 6.001365 1.887353 128.760889 65.249469 148.131524 6.365629 13.426685 1.383703 -0.000256 -0.005540 -0.000113
-14.540176 126.914564 24.203933 -169.051166 -49.566320 -2.687278 -3.163827 25.794259 -0.710693 -0.482778 4.246034 -0.013980 -0.757208 6.774762 -0.029824 -2.517049 21.248980 -0.439495 8.974956 17.381463 1.463802 9.484456 -7.072691 -0.491179 -0.060978 1.855882 0.283111 6.705797 -6.353276 -7.640893 -62.491810 -56.705613 119.063419 19.200502 26.282611 26.102917 -12.016159 -1.645910 -1.920076 -9.321769 -31.294992 14.928435 70.953753 -61.889001 -114.014899 -4.822827 -12.352982 3.550343 -4.490007 -22.886585 -4.501167 -8.920631 78.316582 -8.274235 6.621963 -14.622414 2.544193 -0.008748 -0.002271 -0.003876 6.293536 6.004678 1.892705 128.755017 65.240857 148.117320 6.364501 13.391133 1.398741 -0.007137 -0.000438 -0.003162
-14.540772 126.915010 24.204257 -169.033724 -49.570454 -2.698778 -3.156837 25.808023 -0.695911 -0.482885 4.248570 -0.011726 -0.752045 6.780869 -0.023543 -2.533554 21.240877 -0.441929 8.927427 17.419773 1.449984 9.415892 -7.045010 -0.500003 -0.035473 1.872873 0.289549 6.683299 -6.367696 -7.650162 -62.471893 -56.680016 119.066101 19.207741 26.295420 26.095228 -11.958592 -1.617481 -1.899403 -9.469216 -31.097402 14.902994 70.008887 -61.843072 -113.357013 -4.787450 -12.318051 3.454074 -4.477034 -22.877750 -4.477252 -9.074942 78.318101 -8.394336 6.627434 -14.628097 2.522746 -0.018330 -0.003545 -0.008121 6.319862 6.012365 1.923934 128.746833 65.258554 148.135303 6.355656 13.380859 1.379060 0.000066 -0.001044 0.000029
-14.541025 126.915352 24.204690 -169.026197 -49.574523 -2.704834 -3.143882 25.816829 -0.680327 -0.482813 4.251949 -0.009810 -0.747019 6.785873 -0.018814 -2.547681 21.237641 -0.442637 8.887010 17.454562 1.438150 9.350183 -7.020127 -0.507305 -0.007475 1.891671 0.297393 6.667001 -6.364731 -7.652564 -62.472104 -56.658394 119.088169 19.187002 26.317846 26.090436 -11.902179 -1.592547 -1.879367 -9.626120 -30.893703 14.878880 69.036212 -61.769280 -112.673429 -4.738093 -12.286181 3.355348 -4.459389 -22.870808 -4.438367 -9.288417 78.321350 -8.567338 6.648478 -14.634886 2.484397 -0.031420 -0.004040 -0.013921 6.335047 6.015538 1.944997 128.751047 65.270340 148.155914 6.351626 13.389896 1.311712 0.010200 0.000322 0.004519
-14.543538 126.915518 24.205591 -169.019060 -49.578427 -2.696676 -3.115566 25.828529 -0.662158 -0.480607 4.257475 -0.005654 -0.764473 6.782302 -0.022509 -2.541307 21.248179 -0.429025 8.829595 17.476149 1.419228 9.290531 -6.995320 -0.512765 0.012440 1.906434 0.302111 6.659242 -6.327620 -7.644272 -62.548844 -56.679467 119.155736 19.191132 26.330908 26.083871 -11.867129 -1.583916 -1.866994 -9.797934 -30.681657 14.856506 68.042265 -61.670320 -111.965298 -4.673956 -12.246433 3.263135 -4.430436 -22.865359 -4.394582 -9.563905 78.329504 -8.789626 6.663987 -14.647612 2.434211 -0.051205 -0.004178 -0.022686 6.348544 6.019528 1.954116 128.739512 65.275720 148.141270 6.351209 13.383306 1.297536 0.005706 0.002292 0.002528
-14.545483 126.915829 24.206275 -168.991079 -49.583270 -2.707580 -3.110772 25.836942 -0.649004 -0.500744 4.255640 -0.015507 -0.748578 6.789872 -0.011083 -2.534466 21.254690 -0.418546 8.779100 17.499183 1.405286 9.238772 -6.971388 -0.518051 0.002828 1.904943 0.298851 6.663794 -6.308299 -7.639223 -62.586510 -56.688876 119.183815 19.181144 26.340951 26.091192 -11.831940 -1.575279 -1.857128 -9.991133 -30.459527 14.838047 67.039278 -61.547965 -111.237551 -4.599865 -12.193901 3.191966 -4.384047 -22.856202 -4.405585 -9.528963 78.335838 -8.750765 7.094008 -14.647167 2.399827 -0.045864 -0.003204 -0.020320 6.348262 6.024655 1.966736 128.726669 65.270985 148.115435 6.347191 13.352465 1.330599 -0.006032 0.006038 -0.002673
